<svg width="315" height="107" viewBox="0 0 315 107" fill="none" xmlns="http://www.w3.org/2000/svg">
<path d="M232 29.4H230V106.1H232V29.4Z" fill="#0071E3"></path>
<path d="M0.299988 41.4H11.6V86.3H36.4V96.2H0.299988V41.4Z" fill="#0071E3"></path>
<path d="M96.5 96.9C92 96.9 88 96.2 84.3 94.8C80.6 93.4 77.5 91.4 74.9 88.9C72.3 86.4 70.3 83.4 68.9 80C67.5 76.6 66.8 72.8 66.8 68.8C66.8 64.8 67.5 61 68.9 57.6C70.3 54.2 72.2 51.2 74.6 48.7C77 46.2 80 44.3 83.4 42.9C86.8 41.5 90.6 40.8 94.8 40.8C103.7 40.8 110.3 43.3 114.7 48.4L107 56C106.3 55.3 105.6 54.6 104.8 54C104 53.4 103.2 52.9 102.2 52.4C101.2 52 100.1 51.6 98.9 51.4C97.7 51.1 96.3 51 94.7 51C92.2 51 90 51.5 88 52.4C86 53.3 84.3 54.6 82.8 56.1C81.4 57.7 80.3 59.6 79.5 61.7C78.7 63.9 78.3 66.2 78.3 68.8C78.3 71.4 78.7 73.8 79.5 76C80.3 78.2 81.5 80.1 83 81.7C84.6 83.3 86.4 84.6 88.7 85.5C90.9 86.4 93.5 86.9 96.4 86.9C98.2 86.9 100.1 86.7 102 86.4C104 86.1 105.7 85.6 107.1 84.9V76.8H94V66.9H117.5V90.6C116.7 91.2 115.6 91.9 114.3 92.7C113 93.5 111.4 94.1 109.6 94.8C107.8 95.4 105.8 95.9 103.6 96.4C101.3 96.6 99 96.9 96.5 96.9Z" fill="#0071E3"></path>
<path d="M128.1 41.4H139.4V69.4H162.8V41.4H174.1V96.2H162.8V79.5H139.4V96.2H128.1V41.4Z" fill="#0071E3"></path>
<path d="M198.1 51.3H182.5V41.4H225V51.3H209.4V96.2H198.1V51.3Z" fill="#0071E3"></path>
<path d="M56.9 41H45.5V96.8H56.9V41Z" fill="#0071E3"></path>
<path d="M247.4 27.5H239.6C239.3 27.5 239 27.7 239 28C239 28.3 239.3 28.5 239.6 28.5H247.4C247.7 28.5 248 28.3 248 28C248 27.7 247.7 27.5 247.4 27.5Z" fill="#0071E3"></path>
<path d="M247.4 26H239.6C239.3 26 239 26.2 239 26.5C239 26.8 239.3 27 239.6 27H247.4C247.7 27 248 26.8 248 26.5C248 26.3 247.7 26 247.4 26Z" fill="#0071E3"></path>
<path d="M256.3 20.6C255.7 20.3 255.1 20 254.6 19.7C254.3 19.5 253.8 19.6 253.6 20C253.4 20.3 253.5 20.8 253.9 21C254.5 21.3 255.1 21.6 255.6 21.9C255.9 22.1 256.4 22 256.6 21.6C256.7 21.5 256.7 21.3 256.7 21.2C256.6 20.9 256.5 20.7 256.3 20.6Z" fill="#0071E3"></path>
<path d="M233.5 20C233.3 19.6 232.8 19.6 232.5 19.7C231.9 20 231.3 20.3 230.8 20.6C230.6 20.7 230.5 20.9 230.4 21.2C230.4 21.3 230.4 21.5 230.5 21.6C230.7 22 231.2 22.1 231.5 21.9C232.1 21.6 232.7 21.3 233.2 21C233.6 20.8 233.6 20.3 233.5 20Z" fill="#0071E3"></path>
<path d="M256.9 11.4C256.3 11.5 255.6 11.7 255 11.8C254.8 11.8 254.7 11.9 254.6 12.1C254.6 12.2 254.5 12.2 254.5 12.3C254.5 12.4 254.5 12.6 254.5 12.7C254.6 13.1 254.8 13.2 255.1 13.2C255.2 13.2 255.3 13.2 255.4 13.2C256 13.1 256.7 12.9 257.3 12.8C258.1 12.6 257.8 11.2 256.9 11.4Z" fill="#0071E3"></path>
<path d="M232.6 12.6C232.7 12.3 232.5 11.9 232.1 11.8C231.5 11.7 230.8 11.5 230.2 11.4C229.8 11.3 229.4 11.5 229.3 11.9C229.2 12.3 229.4 12.7 229.8 12.8C230.4 12.9 231.1 13.1 231.7 13.2C232.2 13.3 232.5 13 232.6 12.6Z" fill="#0071E3"></path>
<path d="M252.7 3.8C252.4 3.6 251.9 3.5 251.7 3.8C251.3 4.3 250.9 4.8 250.5 5.3C250.3 5.6 250.2 6 250.5 6.3C250.5 6.3 250.5 6.3 250.6 6.3C250.9 6.5 251.3 6.5 251.6 6.2C252 5.7 252.4 5.2 252.8 4.7C252.9 4.5 253 4 252.7 3.8Z" fill="#0071E3"></path>
<path d="M236.6 5.3C236.2 4.8 235.8 4.3 235.4 3.8C235.1 3.5 234.6 3.6 234.4 3.8C234.1 4.1 234.2 4.6 234.4 4.8C234.8 5.3 235.2 5.8 235.6 6.3C235.7 6.5 235.9 6.5 236.2 6.5C236.4 6.5 236.6 6.4 236.7 6.3C236.8 6.2 236.9 6 236.9 5.9C236.8 5.7 236.7 5.4 236.6 5.3Z" fill="#0071E3"></path>
<path d="M243.5 0.5C243.1 0.5 242.8 0.8 242.8 1.2C242.8 1.8 242.8 2.5 242.8 3.1C242.8 3.5 243.1 3.8 243.5 3.8C243.7 3.8 243.9 3.7 244 3.6C244.1 3.5 244.2 3.3 244.2 3.1C244.2 2.5 244.2 1.8 244.2 1.2C244.3 0.8 243.9 0.5 243.5 0.5Z" fill="#0071E3"></path>
<path d="M243.5 6.5C238.7 6.5 234.8 10.4 234.8 15.2C234.8 18.7 236.9 21.7 239.8 23.1V24.8C239.8 25.1 240 25.3 240.3 25.3H242.5H244.8H246.6C246.9 25.3 247.1 25.1 247.1 24.8V23.1C250.1 21.7 252.1 18.7 252.1 15.2C252.2 10.4 248.3 6.5 243.5 6.5Z" fill="#0071E3"></path>
<path d="M312.3 41.6C311.2 39 309.6 36.7 307.5 34.9C305.4 33.1 302.8 31.7 299.8 30.7C296.8 29.7 293.3 29.3 289.5 29.3H286.5H282.3H280.7H271.1V63.6C271.1 67.6 270.2 70.5 268.5 72.1C266.8 73.8 264 74.6 260.3 74.6C256.5 74.6 253.8 73.8 252 72.1C250.2 70.4 249.3 67.6 249.3 63.6V29.3H238V64.3C238 67.8 238.6 70.8 239.7 73.4C240.8 76 242.4 78.1 244.4 79.8C246.4 81.5 248.7 82.8 251.4 83.6C254.1 84.4 257.1 84.8 260.2 84.8C263.3 84.8 266.2 84.4 268.9 83.6C271.6 82.8 273.9 81.5 275.9 79.8C277.9 78.1 279.4 75.9 280.6 73.4C281.7 70.9 282.3 67.8 282.3 64.3V39.2H286.5H289.2C293.8 39.2 297.1 40.1 299.2 42C301.3 43.9 302.4 46.7 302.4 50.5C302.4 54.3 301.4 57.1 299.3 58.9C298.6 59.5 297.8 60 296.8 60.4C295.6 59.4 294 58.8 292.3 58.8H289H287.8H287.1V62.4H284V64.3H287.1V67.7H284V69.6H287.1V73.2H287.8H289H292.4C294.6 73.2 296.4 72.2 297.7 70.7C298.4 70.5 299.2 70.3 299.9 70.1C302.9 69.1 305.5 67.8 307.6 66C309.7 64.2 311.3 62 312.4 59.4C313.5 56.8 314.1 53.8 314.1 50.5C314 47.2 313.5 44.2 312.3 41.6Z" fill="#0071E3"></path>
</svg>
